<?xml version="1.0" standalone="no"?>
<!DOCTYPE svg PUBLIC "-//W3C//DTD SVG 20010904//EN"
 "http://www.w3.org/TR/2001/REC-SVG-20010904/DTD/svg10.dtd">
<svg version="1.0" xmlns="http://www.w3.org/2000/svg"
 width="768.000000pt" height="620.000000pt" viewBox="0 0 768.000000 620.000000"
 preserveAspectRatio="xMidYMid meet">

<g transform="translate(0.000000,620.000000) scale(0.100000,-0.100000)"
fill="#000000" stroke="none">
<path d="M1962 3857 c-402 -403 -732 -739 -732 -747 0 -21 1461 -1480 1481
-1480 15 0 1443 1432 1463 1467 6 12 -86 110 -407 432 -228 229 -558 561 -733
739 -176 177 -324 322 -329 322 -6 0 -340 -330 -743 -733z"/>
<path d="M3557 4352 c-130 -130 -237 -244 -237 -252 0 -8 219 -234 487 -502
483 -483 486 -487 470 -510 -9 -13 -228 -237 -486 -497 -259 -261 -471 -480
-471 -485 0 -6 109 -121 241 -256 l242 -245 724 730 c398 402 731 740 740 752
15 22 13 25 -53 91 -38 38 -369 371 -737 740 -367 370 -671 672 -675 672 -4 0
-114 -107 -245 -238z"/>
<path d="M4712 4388 c-97 -95 -199 -195 -228 -223 -28 -27 -53 -56 -55 -64 -3
-8 11 -29 31 -48 219 -213 940 -937 940 -945 0 -6 -112 -124 -249 -262 -680
-685 -731 -738 -721 -755 5 -9 59 -65 122 -125 62 -59 165 -159 229 -222 64
-63 121 -114 126 -114 11 0 1456 1444 1462 1461 1 6 -159 173 -357 372 -198
199 -525 527 -726 730 -201 202 -373 367 -382 367 -9 0 -95 -78 -192 -172z"/>
</g>
</svg>
